# xmcd CD database file
#
# Track frame offsets:
#	150
#	16362
#	32355
#	46037
#	62030
#	76607
#	88157
#	99340
#	119925
#
# Disc length: 1814 seconds
#
# Revision: 5
# Processed by: cddbd v1.5.1PL0 Copyright (c) Steve Scherf et al.
# Submitted via: CDex 1.51
#
DISCID=64071409
DTITLE=Elliott Smith - Roman Candle
DYEAR=1994
DGENRE=
TTITLE0=Roman Candle
TTITLE1=Condor Ave
TTITLE2=No Name #1
TTITLE3=No Name #2
TTITLE4=No Name #3
TTITLE5=Drive All Over Town
TTITLE6=No Name #4
TTITLE7=Last Call
TTITLE8=Kiwi Maddog 20/20
EXTD=YEAR: 1994
EXTT0=
EXTT1=
EXTT2=
EXTT3=
EXTT4=
EXTT5=
EXTT6=
EXTT7=
EXTT8=
PLAYORDER=
